<svg fill="none" height="25" viewBox="0 0 87 25" width="87" xmlns="http://www.w3.org/2000/svg"><g fill="#1a1a1f"><path d="m30.784 6.65586-6.176 17.34404h-5.888l-3.264-9.44-3.392 9.44h-5.888l-6.176-17.34404h5.76l3.552 10.49604 3.68-10.49604h5.184l3.584 10.59204 3.68-10.59204z"/><path d="m49.901 15.3599c0 .0426-.032.544-.096 1.504h-12.608c.256.896.7467 1.5893 1.472 2.08.7467.4693 1.6747.704 2.784.704.832 0 1.5467-.1174 2.144-.352.6187-.2347 1.2373-.6187 1.856-1.152l3.2 3.328c-1.6853 1.8773-4.1493 2.816-7.392 2.816-2.0267 0-3.808-.384-5.344-1.152s-2.7307-1.8347-3.584-3.2c-.832-1.3654-1.248-2.912-1.248-4.64 0-1.7067.4053-3.232 1.216-4.576.832-1.36537 1.9733-2.43204 3.424-3.20004s3.0827-1.152 4.896-1.152c1.728 0 3.296.36267 4.704 1.088 1.408.704 2.5173 1.73867 3.328 3.10404.832 1.344 1.248 2.944 1.248 4.8zm-9.248-4.672c-.9387 0-1.728.2666-2.368.8-.6187.5333-1.0133 1.2586-1.184 2.176h7.104c-.1707-.9174-.576-1.6427-1.216-2.176-.6187-.5334-1.3973-.8-2.336-.8z"/><path d="m58.4963 8.73586c.6186-.78933 1.4186-1.376 2.4-1.76 1.0026-.40533 2.144-.608 3.424-.608v5.47204c-.5547-.064-1.0134-.096-1.376-.096-1.3014 0-2.3254.352-3.072 1.056-.7254.704-1.088 1.7813-1.088 3.232v7.968h-6.08v-17.34404h5.792z"/><path d="m74.7012 17.9199-1.792 1.824v4.256h-6.0799v-23.744041h6.0799v12.448041l6.208-6.04804h7.2001l-7.2001 7.42404 7.8081 9.92h-7.36z"/></g></svg>